<svg width="1102" height="202" viewBox="0 0 1102 202" fill="none" xmlns="http://www.w3.org/2000/svg">
<path d="M45.6 57.024C30.624 57.024 19.392 60.672 11.904 67.968C4.416 75.072 0.672001 84.672 0.672001 96.768V103.968C0.672001 117.024 4.608 127.008 12.48 133.92C20.544 140.64 32.064 144 47.04 144H68.64C75.36 144 80.832 143.616 85.056 142.848C89.472 141.888 93.024 140.832 95.712 139.68C98.4 138.528 100.32 137.28 101.472 135.936C102.816 134.4 103.776 133.056 104.352 131.904V144H124.8V39.456C124.8 28.32 120.96 19.296 113.28 12.384C105.6 5.27999 93.888 1.72799 78.144 1.72799H48.192C32.448 1.72799 21.12 4.89599 14.208 11.232C7.488 17.376 4.128 25.728 4.128 36.288V38.592H24.864V36.288C24.864 30.144 26.784 25.728 30.624 23.04C34.464 20.352 40.704 19.008 49.344 19.008H77.568C86.4 19.008 93.024 20.736 97.44 24.192C101.856 27.648 104.064 33.696 104.064 42.336V69.12C102.528 67.392 100.8 65.856 98.88 64.512C97.152 62.976 94.848 61.632 91.968 60.48C89.28 59.328 86.016 58.464 82.176 57.888C78.336 57.312 73.536 57.024 67.776 57.024H45.6ZM20.544 100.512C20.544 91.488 22.752 84.96 27.168 80.928C31.776 76.704 39.744 74.592 51.072 74.592H71.232C77.76 74.592 83.136 75.168 87.36 76.32C91.584 77.472 94.848 79.2 97.152 81.504C99.648 83.616 101.376 86.304 102.336 89.568C103.296 92.832 103.776 96.48 103.776 100.512C103.776 108.96 101.472 115.392 96.864 119.808C92.448 124.224 84.672 126.432 73.536 126.432H51.36C39.84 126.432 31.776 124.416 27.168 120.384C22.752 116.16 20.544 109.536 20.544 100.512ZM234.278 1.72799H219.59C209.03 1.72799 200.582 3.64799 194.246 7.48799C187.91 11.328 183.398 15.744 180.71 20.736V1.72799H159.974V144H180.71V57.6C180.71 45.504 183.878 36 190.214 29.088C196.742 21.984 206.726 18.432 220.166 18.432H234.278C248.87 18.432 259.142 21.696 265.094 28.224C271.046 34.56 274.022 44.352 274.022 57.6V144H294.758V57.6C294.758 39.744 290.054 26.016 280.646 16.416C271.43 6.62399 255.974 1.72799 234.278 1.72799ZM378.575 144.288H397.007C404.687 144.288 411.791 143.616 418.319 142.272C424.847 140.928 430.511 138.72 435.311 135.648C440.111 132.576 443.855 128.544 446.543 123.552C449.423 118.368 450.863 112.128 450.863 104.832V98.784H431.567V103.104C431.567 110.976 429.071 116.928 424.079 120.96C419.087 124.8 410.255 126.72 397.583 126.72H379.151C367.439 126.72 358.895 124.128 353.519 118.944C348.335 113.76 345.743 105.408 345.743 93.888V77.184H450.863V50.112C450.863 34.752 446.351 22.752 437.327 14.112C428.495 5.47199 415.055 1.15199 397.007 1.15199H378.575C361.103 1.15199 348.047 5.85599 339.407 15.264C330.959 24.672 326.735 39.744 326.735 60.48V85.248C326.735 96.768 327.791 106.368 329.903 114.048C332.207 121.536 335.567 127.584 339.983 132.192C344.399 136.608 349.775 139.776 356.111 141.696C362.639 143.424 370.127 144.288 378.575 144.288ZM397.583 19.008C405.263 19.008 411.311 19.776 415.727 21.312C420.335 22.848 423.791 25.248 426.095 28.512C428.399 31.776 429.839 36 430.415 41.184C431.183 46.176 431.567 52.32 431.567 59.616H345.743C345.743 52.128 346.223 45.888 347.183 40.896C348.143 35.712 349.871 31.488 352.367 28.224C354.863 24.96 358.223 22.656 362.447 21.312C366.863 19.776 372.431 19.008 379.151 19.008H397.583ZM536.075 144.288H554.507C562.187 144.288 569.291 143.616 575.819 142.272C582.347 140.928 588.011 138.72 592.811 135.648C597.611 132.576 601.355 128.544 604.043 123.552C606.923 118.368 608.363 112.128 608.363 104.832V98.784H589.067V103.104C589.067 110.976 586.571 116.928 581.579 120.96C576.587 124.8 567.755 126.72 555.083 126.72H536.651C524.939 126.72 516.395 124.128 511.019 118.944C505.835 113.76 503.243 105.408 503.243 93.888V77.184H608.363V50.112C608.363 34.752 603.851 22.752 594.827 14.112C585.995 5.47199 572.555 1.15199 554.507 1.15199H536.075C518.603 1.15199 505.547 5.85599 496.907 15.264C488.459 24.672 484.235 39.744 484.235 60.48V85.248C484.235 96.768 485.291 106.368 487.403 114.048C489.707 121.536 493.067 127.584 497.483 132.192C501.899 136.608 507.275 139.776 513.611 141.696C520.139 143.424 527.627 144.288 536.075 144.288ZM555.083 19.008C562.763 19.008 568.811 19.776 573.227 21.312C577.835 22.848 581.291 25.248 583.595 28.512C585.899 31.776 587.339 36 587.915 41.184C588.683 46.176 589.067 52.32 589.067 59.616H503.243C503.243 52.128 503.723 45.888 504.683 40.896C505.643 35.712 507.371 31.488 509.867 28.224C512.363 24.96 515.723 22.656 519.947 21.312C524.363 19.776 529.931 19.008 536.651 19.008H555.083ZM756.071 16.704C754.535 14.784 752.807 12.96 750.887 11.232C749.159 9.31199 746.759 7.58399 743.687 6.04799C740.807 4.51199 737.063 3.264 732.455 2.304C728.039 1.344 722.279 0.863997 715.175 0.863997H698.471C677.735 0.863997 662.855 6.336 653.831 17.28C644.807 28.032 640.295 43.2 640.295 62.784V82.368C640.295 102.528 644.903 117.888 654.119 128.448C663.335 138.816 678.311 144 699.047 144H715.751C722.087 144 727.463 143.616 731.879 142.848C736.295 141.888 740.039 140.64 743.111 139.104C746.375 137.568 748.967 135.744 750.887 133.632C752.807 131.52 754.535 129.216 756.071 126.72V201.6H776.807V1.72799H756.071V16.704ZM715.751 18.432C729.575 18.432 739.847 22.08 746.567 29.376C753.287 36.672 756.647 48.384 756.647 64.512V82.368C756.647 89.088 756.071 95.232 754.919 100.8C753.767 106.176 751.559 110.784 748.295 114.624C745.223 118.272 740.999 121.152 735.623 123.264C730.247 125.184 723.335 126.144 714.887 126.144H701.927C687.527 126.144 677.063 122.688 670.535 115.776C664.199 108.672 661.031 97.536 661.031 82.368V63.36C661.031 46.656 664.391 35.04 671.111 28.512C677.831 21.792 687.719 18.432 700.775 18.432H715.751ZM867.309 144.288H880.269C886.605 144.288 891.981 143.808 896.397 142.848C900.813 141.696 904.557 140.352 907.629 138.816C910.893 137.28 913.485 135.552 915.405 133.632C917.517 131.52 919.341 129.504 920.877 127.584V144H941.037V1.72799H920.301V89.856C920.301 101.76 916.749 110.592 909.645 116.352C902.733 122.112 892.653 124.992 879.405 124.992H867.021C853.389 124.992 843.885 122.304 838.509 116.928C833.133 111.36 830.445 102.336 830.445 89.856V1.72799H809.709V88.416C809.709 107.232 814.029 121.248 822.669 130.464C831.309 139.68 846.189 144.288 867.309 144.288ZM1028.83 144.288H1047.26C1054.94 144.288 1062.04 143.616 1068.57 142.272C1075.1 140.928 1080.76 138.72 1085.56 135.648C1090.36 132.576 1094.11 128.544 1096.79 123.552C1099.67 118.368 1101.11 112.128 1101.11 104.832V98.784H1081.82V103.104C1081.82 110.976 1079.32 116.928 1074.33 120.96C1069.34 124.8 1060.51 126.72 1047.83 126.72H1029.4C1017.69 126.72 1009.15 124.128 1003.77 118.944C998.585 113.76 995.993 105.408 995.993 93.888V77.184H1101.11V50.112C1101.11 34.752 1096.6 22.752 1087.58 14.112C1078.75 5.47199 1065.31 1.15199 1047.26 1.15199H1028.83C1011.35 1.15199 998.297 5.85599 989.657 15.264C981.209 24.672 976.985 39.744 976.985 60.48V85.248C976.985 96.768 978.041 106.368 980.153 114.048C982.457 121.536 985.817 127.584 990.233 132.192C994.649 136.608 1000.03 139.776 1006.36 141.696C1012.89 143.424 1020.38 144.288 1028.83 144.288ZM1047.83 19.008C1055.51 19.008 1061.56 19.776 1065.98 21.312C1070.59 22.848 1074.04 25.248 1076.35 28.512C1078.65 31.776 1080.09 36 1080.67 41.184C1081.43 46.176 1081.82 52.32 1081.82 59.616H995.993C995.993 52.128 996.473 45.888 997.433 40.896C998.393 35.712 1000.12 31.488 1002.62 28.224C1005.11 24.96 1008.47 22.656 1012.7 21.312C1017.11 19.776 1022.68 19.008 1029.4 19.008H1047.83Z" fill="#6C002C"/>
</svg>
